<?xml version="1.0" encoding="UTF-8"?>
<svg width="32px" height="32px" viewBox="0 0 32 32" version="1.1" xmlns="http://www.w3.org/2000/svg">
    <title>Piano Favicon</title>
    <g stroke="none" stroke-width="1" fill="none" fill-rule="evenodd">
        <rect fill="#000000" x="0" y="0" width="32" height="32" rx="4"></rect>
        <rect fill="#FFFFFF" x="2" y="2" width="4" height="18"></rect>
        <rect fill="#FFFFFF" x="8" y="2" width="4" height="18"></rect>
        <rect fill="#FFFFFF" x="14" y="2" width="4" height="18"></rect>
        <rect fill="#FFFFFF" x="20" y="2" width="4" height="18"></rect>
        <rect fill="#FFFFFF" x="26" y="2" width="4" height="18"></rect>
        <rect fill="#000000" x="5" y="2" width="2" height="12"></rect>
        <rect fill="#000000" x="11" y="2" width="2" height="12"></rect>
        <rect fill="#000000" x="17" y="2" width="2" height="12"></rect>
        <rect fill="#000000" x="23" y="2" width="2" height="12"></rect>
        <rect fill="#000000" x="29" y="2" width="2" height="12"></rect>
        <path d="M2,22 L30,22 L30,28 C30,29.1045695 29.1045695,30 28,30 L4,30 C2.8954305,30 2,29.1045695 2,28 L2,22 Z" fill="#3B82F6"></path>
        <path d="M10,24 C10.5522847,24 11,24.4477153 11,25 L11,27 C11,27.5522847 10.5522847,28 10,28 L6,28 C5.44771525,28 5,27.5522847 5,27 L5,25 C5,24.4477153 5.44771525,24 6,24 L10,24 Z" fill="#FFFFFF" fill-rule="nonzero"></path>
        <path d="M22,24 C22.5522847,24 23,24.4477153 23,25 L23,27 C23,27.5522847 22.5522847,28 22,28 L18,28 C17.4477153,28 17,27.5522847 17,27 L17,25 C17,24.4477153 17.4477153,24 18,24 L22,24 Z" fill="#FFFFFF" fill-rule="nonzero"></path>
    </g>
</svg>
